<svg width="135" height="23" viewBox="0 0 135 23" fill="none" xmlns="http://www.w3.org/2000/svg">
<path d="M18.0283 22H22.4203L14.3923 0.400024H8.84831L0.820312 22H5.06831L6.94031 16.492H16.1563L18.0283 22ZM8.92031 10.768C9.67631 8.57202 10.4683 6.12402 11.1163 3.96402H12.0163C12.6643 6.12402 13.4203 8.57202 14.1763 10.768L15.0763 13.432H8.02031L8.92031 10.768Z" fill="#fff"/>
<path d="M28.2627 12.424C28.2627 9.86803 29.9907 8.14002 32.5827 8.14002C34.8507 8.14002 35.8227 9.65202 35.8227 11.704V22H39.6747V12.424C39.6747 9.86803 41.3307 8.14002 43.9947 8.14002C46.2627 8.14002 47.1987 9.65202 47.1987 11.704V22H51.0867V10.696C51.0867 7.02402 49.3587 4.64802 45.7947 4.64802C42.6627 4.64802 40.6827 6.48402 39.8547 9.72402H39.4587C39.2067 6.59202 37.6227 4.64802 34.4547 4.64802C31.5747 4.64802 29.4507 6.37602 28.5147 9.54402H28.1907V5.08002H24.4107V22H28.2627V12.424Z" fill="#fff"/>
<path d="M60.7735 19.336C58.5775 19.336 57.8215 18.292 57.8215 17.068C57.8215 15.664 58.9375 14.944 60.8815 14.944H65.2735V15.628C65.2735 17.752 63.4735 19.336 60.7735 19.336ZM65.4535 22H69.1255V11.2C69.1255 6.98802 67.0375 4.68402 62.1415 4.68402C57.8215 4.68402 55.4095 6.73602 54.7615 9.94003L58.4335 10.768C58.8655 8.78803 60.0175 7.78003 61.9975 7.78003C64.3735 7.78003 65.2735 9.04003 65.2735 11.236V12.388H60.2335C55.9495 12.388 54.1135 14.584 54.1135 17.608C54.1135 20.92 56.2375 22.36 59.2615 22.36C62.2495 22.36 64.1935 20.704 65.0575 17.968H65.4535V22Z" fill="#fff"/>
<path d="M79.9072 22.468C84.7672 22.468 86.8552 20.452 86.8552 17.32C86.8552 14.656 85.3432 12.964 80.3392 12.028C77.1352 11.452 76.4152 10.624 76.4152 9.43602C76.4152 8.17602 77.4232 7.42002 79.4032 7.42002C81.4192 7.42002 82.4272 8.21203 82.8952 10.3L86.3872 9.54402C85.7032 6.55602 84.1192 4.64802 79.4752 4.64802C74.9752 4.64802 72.7432 6.59202 72.7432 9.65202C72.7432 12.46 74.3272 13.972 78.8272 14.872C82.1752 15.484 83.1112 16.132 83.1112 17.464C83.1112 18.904 82.0312 19.624 79.9792 19.624C77.2432 19.624 76.0552 18.328 75.5152 16.276L72.0232 16.996C72.6352 20.236 74.4352 22.468 79.9072 22.468Z" fill="#fff"/>
<path d="M90.9721 16.852C90.9721 20.02 92.5561 22.468 96.2641 22.468C97.9561 22.468 98.8201 22.252 100.08 21.856L99.6121 18.4C98.7841 18.652 98.0281 18.832 97.1641 18.832C95.4721 18.832 94.8601 17.968 94.8601 16.312V8.21202H99.8281V5.08002H94.8601V0.508025H90.9721V5.08002H88.5961V8.21202H90.9721V16.852Z" fill="#fff"/>
<path d="M108.644 19.336C106.448 19.336 105.692 18.292 105.692 17.068C105.692 15.664 106.808 14.944 108.752 14.944H113.144V15.628C113.144 17.752 111.344 19.336 108.644 19.336ZM113.324 22H116.996V11.2C116.996 6.98802 114.908 4.68402 110.012 4.68402C105.692 4.68402 103.28 6.73602 102.632 9.94003L106.304 10.768C106.736 8.78803 107.888 7.78003 109.868 7.78003C112.244 7.78003 113.144 9.04003 113.144 11.236V12.388H108.104C103.82 12.388 101.984 14.584 101.984 17.608C101.984 20.92 104.108 22.36 107.132 22.36C110.12 22.36 112.064 20.704 112.928 17.968H113.324V22Z" fill="#fff"/>
<path d="M127.778 22.468C132.638 22.468 134.726 20.452 134.726 17.32C134.726 14.656 133.214 12.964 128.21 12.028C125.006 11.452 124.286 10.624 124.286 9.43602C124.286 8.17602 125.294 7.42002 127.274 7.42002C129.29 7.42002 130.298 8.21203 130.766 10.3L134.258 9.54402C133.574 6.55602 131.99 4.64802 127.346 4.64802C122.846 4.64802 120.614 6.59202 120.614 9.65202C120.614 12.46 122.198 13.972 126.698 14.872C130.046 15.484 130.982 16.132 130.982 17.464C130.982 18.904 129.902 19.624 127.85 19.624C125.114 19.624 123.926 18.328 123.386 16.276L119.894 16.996C120.506 20.236 122.306 22.468 127.778 22.468Z" fill="#fff"/>
</svg>
