<svg width="85" height="26" viewBox="0 0 85 26" fill="none" xmlns="http://www.w3.org/2000/svg">
  <path class="u-lg-mc" d="M34.697 20.16c-1.96 0-3.867-.74-5.72-2.22v-1.28c1.8 1.613 3.713 2.42 5.74 2.42 1.026 0 1.906-.233 2.64-.7.733-.48 1.1-1.147 1.1-2 0-.747-.32-1.347-.96-1.8-.627-.454-1.62-.827-2.98-1.12a37.623 37.623 0 0 1-1.54-.38c-.387-.107-.82-.24-1.3-.4-.48-.16-.86-.327-1.14-.5a6.473 6.473 0 0 1-.8-.62 2.397 2.397 0 0 1-.56-.86c-.107-.333-.16-.7-.16-1.1 0-1.2.506-2.127 1.52-2.78 1.013-.667 2.206-1 3.58-1 1.973 0 3.673.6 5.1 1.8V8.9c-1.48-1.36-3.18-2.04-5.1-2.04-1.08 0-2.02.246-2.82.74-.787.48-1.18 1.16-1.18 2.04 0 .32.073.613.22.88.16.253.353.466.58.64.226.16.546.32.96.48.426.16.813.287 1.16.38.36.093.84.207 1.44.34 1.746.386 3.026.88 3.84 1.48.813.6 1.226 1.433 1.24 2.5 0 1.24-.467 2.186-1.4 2.84-.92.653-2.074.98-3.46.98ZM41.778 20V6h1.12v14h-1.12ZM52.157 20.16c-1.987 0-3.654-.7-5-2.1-1.347-1.4-2.02-3.087-2.02-5.06 0-1.987.68-3.674 2.04-5.06 1.36-1.4 3.02-2.1 4.98-2.1 1.453 0 2.74.413 3.86 1.24 1.12.826 1.94 1.913 2.46 3.26l-1.14.22c-.44-1.107-1.114-1.987-2.02-2.64-.907-.667-1.96-1-3.16-1-1.68 0-3.08.593-4.2 1.78-1.12 1.173-1.68 2.607-1.68 4.3 0 1.68.553 3.107 1.66 4.28 1.12 1.173 2.526 1.76 4.22 1.76 1.506 0 2.753-.493 3.74-1.48 1-.987 1.573-2.253 1.72-3.8h-5.52l-.02-1h6.68v.32c0 2-.614 3.68-1.84 5.04-1.227 1.36-2.814 2.04-4.76 2.04ZM60.668 20V6h1.12v6.48h8.74V6h1.12v14h-1.12v-6.5h-8.74V20h-1.12ZM78.384 20V7.06h-5.04V6h11.06v1.06h-4.9V20h-1.12ZM26 13c0 7.18-5.82 13-13 13S0 20.18 0 13 5.82 0 13 0s13 5.82 13 13Z" fill="#fff"></path>
  <path class="u-lg-ac" d="m6 6 5.5 5.5H8V20H6V6ZM19.5 6 14 11.5h3.5V20h2V6Z" fill="#000"></path>
</svg>