<svg width="100" height="26" viewBox="0 0 100 26" fill="none" xmlns="http://www.w3.org/2000/svg">
<path fill-rule="evenodd" clip-rule="evenodd" d="M78.2011 7.6333H78.1515C77.253 7.6333 76.5243 8.36198 76.5243 9.26051V13.1844C76.5243 14.4149 75.5265 15.4131 74.2956 15.4134L71.7269 15.4142C70.4905 15.4134 69.4883 14.4123 69.4883 13.1763C69.4883 11.9351 69.4879 10.4179 69.4879 9.2844C69.4879 8.37227 68.7485 7.6333 67.8364 7.6333C66.9239 7.6333 66.1846 8.37154 66.1846 9.28404C66.1846 10.6509 66.1846 12.4778 66.1846 13.1748C66.1846 16.2307 68.6706 18.7164 71.7265 18.7164H74.2871C77.3427 18.7164 79.8283 16.2307 79.8283 13.1748C79.8283 12.394 79.8283 10.5969 79.8283 9.2594C79.8283 8.36087 79.0996 7.6333 78.2011 7.6333Z" fill="#fff"/>
<path fill-rule="evenodd" clip-rule="evenodd" d="M34.6861 15.4129H32.1195C30.8824 15.4129 29.878 14.4103 29.8736 13.1732C29.8721 12.7364 29.871 12.3974 29.8714 12.3511C29.878 11.5702 30.5115 10.939 31.2923 10.939H35.5107C36.2909 10.939 36.9254 11.568 36.9313 12.3485C36.9313 12.3919 36.9317 12.7287 36.932 13.164C36.9328 14.4048 35.9269 15.4129 34.6861 15.4129ZM37.3956 7.30697L36.7096 8.02352C36.0806 7.77499 35.3975 7.63344 34.6809 7.63344H32.1203C29.0644 7.63344 26.5784 10.1195 26.5784 13.175C26.5784 16.2309 29.0644 18.7165 32.1203 18.7165H34.6809C37.7365 18.7165 40.2221 16.2309 40.2221 13.175C40.2221 12.0401 39.8784 10.9849 39.2905 10.1055L39.7828 9.59117C40.4126 8.93271 40.3898 7.88492 39.7317 7.2555C39.0732 6.62536 38.0254 6.64852 37.3956 7.30697Z" fill="#fff"/>
<path fill-rule="evenodd" clip-rule="evenodd" d="M61.3608 1.7522C60.4501 1.7522 59.709 2.49337 59.709 3.40404V17.0651C59.709 17.9754 60.4501 18.7165 61.3608 18.7165C62.2722 18.7165 63.013 17.9754 63.013 17.0651V3.40404C63.013 2.49337 62.2722 1.7522 61.3608 1.7522Z" fill="#fff"/>
<path fill-rule="evenodd" clip-rule="evenodd" d="M22.1981 0.824707C21.2867 0.824707 20.5459 1.56588 20.5459 2.47691V3.89162C20.5459 4.80265 21.2867 5.54382 22.1981 5.54382C23.1088 5.54382 23.85 4.80265 23.85 3.89162V2.47691C23.85 1.56588 23.1088 0.824707 22.1981 0.824707Z" fill="#fff"/>
<path fill-rule="evenodd" clip-rule="evenodd" d="M22.1976 7.64136C21.2869 7.64136 20.5457 8.38253 20.5457 9.2932V17.0744C20.5457 17.9851 21.2869 18.7259 22.1976 18.7259C23.1086 18.7259 23.8498 17.9851 23.8498 17.0744V9.2932C23.8498 8.38253 23.1086 7.64136 22.1976 7.64136Z" fill="#fff"/>
<path fill-rule="evenodd" clip-rule="evenodd" d="M39.5057 19.7812C38.7454 19.2738 37.7245 19.4705 37.2179 20.2304C37.1896 20.2702 36.5087 21.2124 35.012 21.7705C33.5175 22.3271 31.8627 21.9889 31.8546 21.9871C30.9634 21.7918 30.0793 22.3521 29.8815 23.2444C29.684 24.1367 30.2469 25.0198 31.1388 25.2176C31.2796 25.2488 32.0237 25.4018 33.0509 25.4018C33.9458 25.4018 35.0557 25.2856 36.1679 24.8709C38.6675 23.9385 39.8333 22.2716 39.9579 22.0852C40.4646 21.3246 40.2657 20.2882 39.5057 19.7812Z" fill="#fff"/>
<path fill-rule="evenodd" clip-rule="evenodd" d="M51.4329 15.4135L48.8755 15.4142C47.641 15.4135 46.6403 14.4128 46.6395 13.1782L46.6384 10.9389L52.2689 10.9392C53.0491 10.9392 53.684 11.5683 53.6895 12.3484C53.6899 12.3914 53.6903 12.7227 53.6906 13.1525C53.6914 14.3999 52.6803 15.4131 51.4329 15.4135ZM51.4392 7.63336H46.641V3.40358C46.641 2.44292 45.816 1.67123 44.8369 1.75873C43.9708 1.8363 43.3369 2.62086 43.3369 3.49071V7.63336V13.1749C43.3369 16.2308 45.8226 18.7164 48.8785 18.7164H51.4392C54.4947 18.7164 56.9803 16.2308 56.9803 13.1749C56.9803 10.1194 54.4947 7.63336 51.4392 7.63336Z" fill="#fff"/>
<path fill-rule="evenodd" clip-rule="evenodd" d="M12.2698 15.4135L9.7125 15.4142C8.47794 15.4135 7.4772 14.4128 7.47647 13.1782L7.475 10.9389L13.1059 10.9392C13.886 10.9392 14.521 11.5683 14.5265 12.3484C14.5268 12.3914 14.5272 12.7227 14.5276 13.1525C14.5279 14.3999 13.5173 15.4131 12.2698 15.4135ZM12.2761 7.63336H9.07573H7.47794V3.40358C7.47794 2.44292 6.65294 1.67123 5.67389 1.75873C4.80735 1.8363 4.17389 2.62086 4.17389 3.49071V7.63336H1.71581C0.755144 7.63336 -0.0165471 8.45836 0.0709529 9.4374C0.148526 10.3039 0.933085 10.9374 1.80294 10.9374H4.17389V13.1749C4.17389 16.2308 6.65956 18.7164 9.71544 18.7164H12.2761C15.3316 18.7164 17.8173 16.2308 17.8173 13.1749C17.8173 10.1194 15.3316 7.63336 12.2761 7.63336Z" fill="#fff"/>
<path fill-rule="evenodd" clip-rule="evenodd" d="M88.0982 15.4127C86.8607 15.4127 85.8566 14.412 85.8522 13.1748V13.1587C85.8474 11.934 86.8393 10.9388 88.064 10.9388H90.8915C91.6588 10.9388 92.2809 11.5579 92.2864 12.3248C92.2864 12.3326 92.2864 12.3403 92.2864 12.3484C92.2868 12.3726 90.9044 14.3554 90.1662 15.4127H88.0982ZM98.0191 15.4127H94.1272L94.8934 14.4679C96.0187 13.08 96.0809 11.0719 94.9548 9.68477C93.9401 8.43404 92.3926 7.6333 90.6592 7.6333H88.2588C85.2787 7.6333 82.7107 9.91896 82.5636 12.8954C82.407 16.0778 84.9504 18.7164 88.0985 18.7164H98.0191C98.9316 18.7164 99.6713 17.9771 99.6713 17.0646C99.6713 16.1524 98.9316 15.4127 98.0191 15.4127Z" fill="#fff"/>
</svg>
