<svg width="90" height="32" viewBox="0 0 90 32" fill="none" xmlns="http://www.w3.org/2000/svg">
<path d="M33.7342 13.7776V27.3332H36.5906V13.7776H40.8751V11.4664H36.5906V9.79053C36.5906 7.95295 37.3221 6.78679 38.9244 6.78679C40.3177 6.78679 41.1886 7.70558 41.5718 8.90707L43.5573 8.20031C42.8606 5.868 41.3976 4.6665 38.7851 4.6665C35.5804 4.6665 33.7342 6.82213 33.7342 10.1086V11.4664H31.4004V13.7776H33.7342Z" fill="#fff"/>
<path d="M45.6729 19.2054C45.6729 15.7423 47.6009 13.3393 50.6662 13.3393C53.7664 13.3393 55.7292 15.7423 55.7292 19.2054C55.7292 22.6332 53.7664 25.0715 50.6662 25.0715C47.6009 25.0715 45.6729 22.6332 45.6729 19.2054ZM58.69 19.2054C58.69 14.3994 55.1597 11.0423 50.6662 11.0423C46.2076 11.0423 42.7121 14.3994 42.7121 19.2054C42.7121 24.0114 46.2076 27.3332 50.6662 27.3332C55.1597 27.3332 58.69 24.0114 58.69 19.2054Z" fill="#fff"/>
<path d="M61.6825 4.6665V27.3332H64.5736V4.6665H61.6825Z" fill="#fff"/>
<path d="M71.1899 21.3257L73.3148 19.4174L79.3758 27.3332H82.7894L75.4744 17.7919L82.4759 11.4664H78.8533L71.1899 18.4633V4.6665H68.2987V27.3332H71.1899V21.3257Z" fill="#fff"/>
<path d="M86.5166 27.3536H89.9999V23.8197H86.5166V27.3536Z" fill="#fff"/>
<path d="M13.4337 3.24434C20.4073 3.24434 26.0673 8.9266 26.0673 15.9443C26.0673 22.9621 20.4073 28.6443 13.4337 28.6443C6.45999 28.6443 0.8 22.9621 0.8 15.9443C0.8 8.9266 6.45999 3.24434 13.4337 3.24434Z" stroke="#fff" stroke-width="1.6" stroke-miterlimit="4.13357"/>
<path d="M13.2656 24.2222H13.7113C18.0288 24.2222 21.5595 20.87 21.6701 16.4464C21.6763 16.2017 21.4844 16 21.2457 16H5.73125C5.49249 16 5.30067 16.2017 5.30678 16.4464C5.41745 20.87 8.94811 24.2222 13.2656 24.2222Z" fill="#fff"/>
</svg>
