<svg xmlns="http://www.w3.org/2000/svg" viewBox="0 0 1024 300" width="1024" height="300" preserveAspectRatio="slice" style="width: 100%; height: 100%; transform: translate3d(0px, 0px, 0px); content-visibility: visible;"><defs><clipPath id="__lottie_element_2"><rect width="1024" height="300" x="0" y="0"></rect></clipPath></defs><g clip-path="url(#__lottie_element_2)"><g transform="matrix(2,0,0,2,318.5,162.52999877929688)" opacity="1" style="display: block;"><g opacity="1" transform="matrix(1,0,0,1,0,0)"><path fill="rgb(252,252,252)" fill-opacity="1" d=" M101,-40.625 C101,-40.625 87.625,-12.5 87.625,-12.5 C87.625,-12.5 102,12.875 102,12.875 C102,12.875 121.625,9.5 121.625,9.5 C121.625,9.5 127.75,-0.75 127.75,-0.75 C127.75,-0.75 127.75,-24.25 127.75,-24.25 C127.75,-24.25 124.625,-32 124.625,-32 C124.625,-32 111.5,-37.625 111.5,-37.625 C111.5,-37.625 101,-40.625 101,-40.625z"></path><path stroke-linecap="butt" stroke-linejoin="miter" fill-opacity="0" stroke-miterlimit="4" stroke="rgb(255,255,255)" stroke-opacity="1" stroke-width="2" d=" M101,-40.625 C101,-40.625 87.625,-12.5 87.625,-12.5 C87.625,-12.5 102,12.875 102,12.875 C102,12.875 121.625,9.5 121.625,9.5 C121.625,9.5 127.75,-0.75 127.75,-0.75 C127.75,-0.75 127.75,-24.25 127.75,-24.25 C127.75,-24.25 124.625,-32 124.625,-32 C124.625,-32 111.5,-37.625 111.5,-37.625 C111.5,-37.625 101,-40.625 101,-40.625z"></path></g><g opacity="1" transform="matrix(1,0,0,1,0,0)"><path fill="rgb(252,252,252)" fill-opacity="1" d=" M214.375,-37.25 C214.375,-37.25 204.75,-18.5 204.75,-18.5 C204.75,-18.5 211.125,2.625 211.125,2.625 C211.125,2.625 221.875,10.75 221.875,10.75 C221.875,10.75 235.75,6.25 235.75,6.25 C235.75,6.25 240.75,-1.625 240.75,-1.625 C240.75,-1.625 241.375,-23.25 241.375,-23.25 C241.375,-23.25 238.125,-30.25 238.125,-30.25 C238.125,-30.25 229.375,-36.75 229.375,-36.75 C229.375,-36.75 214.375,-37.25 214.375,-37.25z"></path><path stroke-linecap="butt" stroke-linejoin="miter" fill-opacity="0" stroke-miterlimit="4" stroke="rgb(255,255,255)" stroke-opacity="1" stroke-width="2" d=" M214.375,-37.25 C214.375,-37.25 204.75,-18.5 204.75,-18.5 C204.75,-18.5 211.125,2.625 211.125,2.625 C211.125,2.625 221.875,10.75 221.875,10.75 C221.875,10.75 235.75,6.25 235.75,6.25 C235.75,6.25 240.75,-1.625 240.75,-1.625 C240.75,-1.625 241.375,-23.25 241.375,-23.25 C241.375,-23.25 238.125,-30.25 238.125,-30.25 C238.125,-30.25 229.375,-36.75 229.375,-36.75 C229.375,-36.75 214.375,-37.25 214.375,-37.25z"></path></g></g><g transform="matrix(2,0,0,2,4.082000732421875,44.157997131347656)" opacity="1" style="display: block;"><g opacity="1" transform="matrix(1,0,0,1,53.48099899291992,58.85300064086914)"><path fill="rgb(252,252,252)" fill-opacity="1" d=" M53.231998443603516,-58.60300064086914 C53.231998443603516,-58.60300064086914 31.905000686645508,58.60300064086914 31.905000686645508,58.60300064086914 C31.905000686645508,58.60300064086914 -31.9060001373291,58.60300064086914 -31.9060001373291,58.60300064086914 C-31.9060001373291,58.60300064086914 -53.231998443603516,-58.60300064086914 -53.231998443603516,-58.60300064086914 C-53.231998443603516,-58.60300064086914 -14.00100040435791,-58.60300064086914 -14.00100040435791,-58.60300064086914 C-14.00100040435791,-58.60300064086914 -0.0020000000949949026,41.02299880981445 -0.0020000000949949026,41.02299880981445 C-0.0020000000949949026,41.02299880981445 13.99899959564209,-58.60300064086914 13.99899959564209,-58.60300064086914 C13.99899959564209,-58.60300064086914 53.231998443603516,-58.60300064086914 53.231998443603516,-58.60300064086914z"></path></g></g><g transform="matrix(2,0,0,2,210.80999755859375,42.52799987792969)" opacity="1" style="display: block;"><g opacity="1" transform="matrix(1,0,0,1,54.29499816894531,59.66699981689453)"><path fill="rgb(252,252,252)" fill-opacity="1" d=" M54.04600143432617,-4.881999969482422 C54.04600143432617,-4.881999969482422 54.04600143432617,4.883999824523926 54.04600143432617,4.883999824523926 C54.04600143432617,41.349998474121094 37.11399841308594,59.41699981689453 -0.0010000000474974513,59.41699981689453 C-36.952999114990234,59.41699981689453 -54.04600143432617,41.349998474121094 -54.04600143432617,4.883999824523926 C-54.04600143432617,4.883999824523926 -54.04600143432617,-4.881999969482422 -54.04600143432617,-4.881999969482422 C-54.04600143432617,-41.347999572753906 -36.952999114990234,-59.41699981689453 -0.0010000000474974513,-59.41699981689453 C37.11399841308594,-59.41699981689453 54.04600143432617,-41.347999572753906 54.04600143432617,-4.881999969482422z M14.97700023651123,3.4189999103546143 C14.97700023651123,3.4189999103546143 14.97700023651123,-3.4179999828338623 14.97700023651123,-3.4179999828338623 C14.97700023651123,-20.836999893188477 10.418000221252441,-25.39299964904785 -0.0010000000474974513,-25.39299964904785 C-10.418999671936035,-25.39299964904785 -14.977999687194824,-20.836999893188477 -14.977999687194824,-3.4179999828338623 C-14.977999687194824,-3.4179999828338623 -14.977999687194824,3.4189999103546143 -14.977999687194824,3.4189999103546143 C-14.977999687194824,20.836000442504883 -10.418999671936035,25.395000457763672 -0.0010000000474974513,25.395000457763672 C10.418000221252441,25.395000457763672 14.97700023651123,20.836000442504883 14.97700023651123,3.4189999103546143z"></path></g></g><g transform="matrix(2,0,0,2,433.822021484375,42.52799987792969)" opacity="1" style="display: block;"><g opacity="1" transform="matrix(1,0,0,1,54.29499816894531,63.736000061035156)"><path fill="rgb(252,252,252)" fill-opacity="1" d=" M54.04499816894531,-62.67100143432617 C54.04499816894531,-62.67100143432617 54.04499816894531,31.58099937438965 54.04499816894531,31.58099937438965 C54.04499816894531,53.558998107910156 37.441001892089844,63.486000061035156 0.32600000500679016,63.486000061035156 C-34.999000549316406,63.486000061035156 -50.95100021362305,54.37099838256836 -50.95100021362305,37.279998779296875 C-50.95100021362305,37.279998779296875 -50.95100021362305,35.32500076293945 -50.95100021362305,35.32500076293945 C-50.95100021362305,35.32500076293945 -14.161999702453613,35.32500076293945 -14.161999702453613,35.32500076293945 C-14.161999702453613,35.32500076293945 -14.161999702453613,36.465999603271484 -14.161999702453613,36.465999603271484 C-14.161999702453613,44.44200134277344 -10.093000411987305,47.20800018310547 0.16300000250339508,47.20800018310547 C11.069999694824219,47.20800018310547 14.97700023651123,43.790000915527344 14.97700023651123,34.67300033569336 C14.97700023651123,34.67300033569336 14.97700023651123,-6.675000190734863 14.97700023651123,-6.675000190734863 C14.97700023651123,18.72100067138672 4.883999824523926,29.628000259399414 -17.743000030517578,29.628000259399414 C-44.277000427246094,29.628000259399414 -54.04499816894531,17.41900062561035 -54.04499816894531,-10.744000434875488 C-54.04499816894531,-10.744000434875488 -54.04499816894531,-23.115999221801758 -54.04499816894531,-23.115999221801758 C-54.04499816894531,-51.277000427246094 -44.277000427246094,-63.486000061035156 -17.743000030517578,-63.486000061035156 C4.883999824523926,-63.486000061035156 14.97700023651123,-52.58100128173828 14.97700023651123,-27.18600082397461 C14.97700023651123,-27.18600082397461 14.97700023651123,-62.67100143432617 14.97700023651123,-62.67100143432617 C14.97700023651123,-62.67100143432617 54.04499816894531,-62.67100143432617 54.04499816894531,-62.67100143432617z M0,-37.441001892089844 C-9.277999877929688,-37.441001892089844 -14.975000381469727,-33.858001708984375 -14.975000381469727,-17.41699981689453 C-14.975000381469727,-17.41699981689453 -14.975000381469727,-16.44099998474121 -14.975000381469727,-16.44099998474121 C-14.975000381469727,0 -9.277999877929688,3.5829999446868896 0,3.5829999446868896 C10.093999862670898,3.5829999446868896 14.97700023651123,0.32600000500679016 14.97700023651123,-12.857999801635742 C14.97700023651123,-12.857999801635742 14.97700023651123,-20.99799919128418 14.97700023651123,-20.99799919128418 C14.97700023651123,-34.183998107910156 10.093999862670898,-37.441001892089844 0,-37.441001892089844z"></path></g></g><g transform="matrix(2,0,0,2,885.06396484375,17.45800018310547)" opacity="1" style="display: block;"><g opacity="1" transform="matrix(1,0,0,1,32.9630012512207,65.52799987792969)"><path fill="rgb(252,252,252)" fill-opacity="1" d=" M16.600000381469727,-51.930999755859375 C16.600000381469727,-51.930999755859375 16.600000381469727,-65.27799987792969 16.600000381469727,-65.27799987792969 C16.600000381469727,-65.27799987792969 -22.469999313354492,-65.27799987792969 -22.469999313354492,-65.27799987792969 C-22.469999313354492,-65.27799987792969 -22.469999313354492,-51.930999755859375 -22.469999313354492,-51.930999755859375 C-22.469999313354492,-51.930999755859375 -32.7140007019043,-51.930999755859375 -32.7140007019043,-51.930999755859375 C-32.7140007019043,-51.930999755859375 -32.7140007019043,-20.67300033569336 -32.7140007019043,-20.67300033569336 C-32.7140007019043,-20.67300033569336 -22.469999313354492,-20.67300033569336 -22.469999313354492,-20.67300033569336 C-22.469999313354492,-20.67300033569336 -22.469999313354492,65.27799987792969 -22.469999313354492,65.27799987792969 C-22.469999313354492,65.27799987792969 16.600000381469727,65.27799987792969 16.600000381469727,65.27799987792969 C16.600000381469727,65.27799987792969 16.600000381469727,-20.67300033569336 16.600000381469727,-20.67300033569336 C16.600000381469727,-20.67300033569336 32.7140007019043,-20.67300033569336 32.7140007019043,-20.67300033569336 C32.7140007019043,-20.67300033569336 32.7140007019043,-51.930999755859375 32.7140007019043,-51.930999755859375 C32.7140007019043,-51.930999755859375 16.600000381469727,-51.930999755859375 16.600000381469727,-51.930999755859375z"></path></g></g><g transform="matrix(2,0,0,2,658.822021484375,42.52799987792969)" opacity="1" style="display: block;"><g opacity="1" transform="matrix(1,0,0,1,54.29499816894531,63.736000061035156)"><path fill="rgb(252,252,252)" fill-opacity="1" d=" M54.04499816894531,-62.67100143432617 C54.04499816894531,-62.67100143432617 54.04499816894531,31.58099937438965 54.04499816894531,31.58099937438965 C54.04499816894531,53.558998107910156 37.441001892089844,63.486000061035156 0.32600000500679016,63.486000061035156 C-34.999000549316406,63.486000061035156 -50.95100021362305,54.37099838256836 -50.95100021362305,37.279998779296875 C-50.95100021362305,37.279998779296875 -50.95100021362305,35.32500076293945 -50.95100021362305,35.32500076293945 C-50.95100021362305,35.32500076293945 -14.161999702453613,35.32500076293945 -14.161999702453613,35.32500076293945 C-14.161999702453613,35.32500076293945 -14.161999702453613,36.465999603271484 -14.161999702453613,36.465999603271484 C-14.161999702453613,44.44200134277344 -10.093000411987305,47.20800018310547 0.16300000250339508,47.20800018310547 C11.069999694824219,47.20800018310547 14.97700023651123,43.790000915527344 14.97700023651123,34.67300033569336 C14.97700023651123,34.67300033569336 14.97700023651123,-6.675000190734863 14.97700023651123,-6.675000190734863 C14.97700023651123,18.72100067138672 4.883999824523926,29.628000259399414 -17.743000030517578,29.628000259399414 C-44.277000427246094,29.628000259399414 -54.04499816894531,17.41900062561035 -54.04499816894531,-10.744000434875488 C-54.04499816894531,-10.744000434875488 -54.04499816894531,-23.115999221801758 -54.04499816894531,-23.115999221801758 C-54.04499816894531,-51.277000427246094 -44.277000427246094,-63.486000061035156 -17.743000030517578,-63.486000061035156 C4.883999824523926,-63.486000061035156 14.97700023651123,-52.58100128173828 14.97700023651123,-27.18600082397461 C14.97700023651123,-27.18600082397461 14.97700023651123,-62.67100143432617 14.97700023651123,-62.67100143432617 C14.97700023651123,-62.67100143432617 54.04499816894531,-62.67100143432617 54.04499816894531,-62.67100143432617z M0,-37.441001892089844 C-9.277999877929688,-37.441001892089844 -14.975000381469727,-33.858001708984375 -14.975000381469727,-17.41699981689453 C-14.975000381469727,-17.41699981689453 -14.975000381469727,-16.44099998474121 -14.975000381469727,-16.44099998474121 C-14.975000381469727,0 -9.277999877929688,3.5829999446868896 0,3.5829999446868896 C10.093999862670898,3.5829999446868896 14.97700023651123,0.32600000500679016 14.97700023651123,-12.857999801635742 C14.97700023651123,-12.857999801635742 14.97700023651123,-20.99799919128418 14.97700023651123,-20.99799919128418 C14.97700023651123,-34.183998107910156 10.093999862670898,-37.441001892089844 0,-37.441001892089844z"></path></g></g><g transform="matrix(2,0,0,2,511.89398193359375,94.3800048828125)" opacity="1" style="display: block;"><g opacity="1" transform="matrix(1,0,0,1,15.22599983215332,20.761999130249023)"><path fill="rgb(29,29,29)" fill-opacity="1" d=" M-0.0010000000474974513,-20.511999130249023 C-9.279000282287598,-20.511999130249023 -14.97599983215332,-16.929000854492188 -14.97599983215332,-0.4880000054836273 C-14.97599983215332,-0.4880000054836273 -14.97599983215332,0.4880000054836273 -14.97599983215332,0.4880000054836273 C-14.97599983215332,16.929000854492188 -9.279000282287598,20.511999130249023 -0.0010000000474974513,20.511999130249023 C10.093999862670898,20.511999130249023 14.97599983215332,17.2549991607666 14.97599983215332,4.071000099182129 C14.97599983215332,4.071000099182129 14.97599983215332,-4.068999767303467 14.97599983215332,-4.068999767303467 C14.97599983215332,-17.2549991607666 10.093999862670898,-20.511999130249023 -0.0010000000474974513,-20.511999130249023z"></path></g></g><g transform="matrix(2,0,0,2,736.89404296875,94.3800048828125)" opacity="1" style="display: block;"><g opacity="1" transform="matrix(1,0,0,1,15.22599983215332,20.761999130249023)"><path fill="rgb(29,29,29)" fill-opacity="1" d=" M-0.0010000000474974513,-20.511999130249023 C-9.279000282287598,-20.511999130249023 -14.97599983215332,-16.929000854492188 -14.97599983215332,-0.4880000054836273 C-14.97599983215332,-0.4880000054836273 -14.97599983215332,0.4880000054836273 -14.97599983215332,0.4880000054836273 C-14.97599983215332,16.929000854492188 -9.279000282287598,20.511999130249023 -0.0010000000474974513,20.511999130249023 C10.093999862670898,20.511999130249023 14.97599983215332,17.2549991607666 14.97599983215332,4.071000099182129 C14.97599983215332,4.071000099182129 14.97599983215332,-4.068999767303467 14.97599983215332,-4.068999767303467 C14.97599983215332,-17.2549991607666 10.093999862670898,-20.511999130249023 -0.0010000000474974513,-20.511999130249023z"></path></g></g></g></svg>