<svg width="269" height="48" viewBox="0 0 269 48" fill="none" xmlns="http://www.w3.org/2000/svg">
<path d="M84.1807 39.4591C91.0061 39.4591 95.9043 35.9661 96.7474 29.0604H91.528C90.9659 33.1155 88.1555 35.1229 84.1807 35.1229C78.881 35.1229 75.7895 31.3087 75.7895 24.8447V24.5235C75.7895 18.0996 79.0817 14.165 84.1405 14.165C88.2759 14.165 90.4038 16.1323 91.0061 19.9465H96.4262C95.7839 13.2014 90.6849 9.90915 84.1004 9.90915C76.1107 9.90915 70.1686 15.9315 70.1686 24.5637V24.8849C70.1686 33.7177 75.1872 39.4591 84.1807 39.4591Z" fill="black"/>
<path d="M109.965 35.685C106.271 35.685 104.143 32.995 104.143 28.699V28.3778C104.143 24.0417 106.352 21.432 109.965 21.432C113.578 21.432 115.747 24.0819 115.747 28.418V28.699C115.747 32.995 113.578 35.685 109.965 35.685ZM109.925 39.4591C116.108 39.4591 120.725 35.2032 120.725 28.6589V28.3377C120.725 21.9138 116.108 17.6178 109.965 17.6178C103.782 17.6178 99.1649 21.9539 99.1649 28.4581V28.7793C99.1649 35.1631 103.742 39.4591 109.925 39.4591Z" fill="black"/>
<path d="M132.582 39.4591C135.674 39.4591 138.364 37.6122 139.488 35.5244V39.0576H144.346V8.34332H139.488V21.2714C138.324 19.1836 136.196 17.6178 132.783 17.6178C127.323 17.6178 123.348 21.8736 123.348 28.5786V28.8998C123.348 35.7252 127.323 39.4591 132.582 39.4591ZM133.787 35.6047C130.655 35.6047 128.326 33.3965 128.326 28.7793V28.4581C128.326 23.9213 130.414 21.432 133.988 21.432C137.521 21.432 139.649 23.7205 139.649 28.3377V28.6589C139.649 33.3564 137.159 35.6047 133.787 35.6047Z" fill="black"/>
<path d="M158.953 39.4591C164.333 39.4591 167.906 37.0501 168.589 32.6337H163.891C163.53 34.6813 162.004 35.8456 159.073 35.8456C155.46 35.8456 153.452 33.5973 153.292 29.6225H168.669V28.2172C168.669 20.7093 163.972 17.6178 158.752 17.6178C152.77 17.6178 148.313 21.9539 148.313 28.4581V28.7793C148.313 35.404 152.77 39.4591 158.953 39.4591ZM153.372 26.3704C153.854 23.1183 155.821 21.151 158.752 21.151C161.763 21.151 163.61 22.7569 163.851 26.3704H153.372Z" fill="black"/>
<path d="M173.45 39.0576H178.308V21.7131H183.086V18.0595H178.308V15.0483C178.308 13.2415 179.111 11.9568 181.038 11.9568C181.921 11.9568 182.524 12.0371 183.086 12.278V8.50392C182.323 8.26303 181.64 8.14258 180.436 8.14258C175.979 8.14258 173.45 10.6318 173.45 15.249V18.0595H170.599V21.7131H173.45V39.0576Z" fill="black"/>
<path d="M186.323 39.0576H191.181V8.34332H186.323V39.0576Z" fill="black"/>
<path d="M206.096 35.685C202.402 35.685 200.274 32.995 200.274 28.699V28.3778C200.274 24.0417 202.483 21.432 206.096 21.432C209.709 21.432 211.878 24.0819 211.878 28.418V28.699C211.878 32.995 209.709 35.685 206.096 35.685ZM206.056 39.4591C212.239 39.4591 216.856 35.2032 216.856 28.6589V28.3377C216.856 21.9138 212.239 17.6178 206.096 17.6178C199.913 17.6178 195.296 21.9539 195.296 28.4581V28.7793C195.296 35.1631 199.873 39.4591 206.056 39.4591Z" fill="black"/>
<path d="M224.592 39.0576H229.571L233.826 24.925L237.721 39.0576H242.659L249.244 18.0595H244.506L240.13 33.2359L236.035 18.0595H231.979L227.523 33.2359L223.347 18.0595H218.168L224.592 39.0576Z" fill="black"/>
<path d="M259.741 39.4591C265.121 39.4591 268.132 37.0099 268.132 32.7541C268.132 28.2975 265.201 27.0931 260.263 26.3302C256.93 25.7681 255.927 25.1659 255.927 23.6402C255.927 22.1547 257.171 21.151 259.259 21.151C261.507 21.151 262.591 22.0342 262.993 23.9614H267.49C266.968 19.2238 263.555 17.6178 259.259 17.6178C255.324 17.6178 251.39 19.7056 251.39 23.9213C251.39 27.8559 253.437 29.4217 258.978 30.305C262.07 30.827 263.475 31.4693 263.475 33.1958C263.475 34.9623 262.31 35.8858 259.701 35.8858C256.85 35.8858 255.766 34.6411 255.525 32.5132H250.948C251.149 36.9698 254.321 39.4591 259.741 39.4591Z" fill="black"/>
<path d="M52.6164 20.1425C52.4135 20.0511 52.236 19.9446 52.0838 19.8229C51.4751 19.341 51.1657 18.6157 51.1657 17.6468C51.1657 16.9671 51.3077 15.6027 51.5918 13.5534C51.7338 12.6708 51.8606 11.7578 51.9773 10.8042C52.0889 9.85057 52.1497 9.00856 52.1497 8.26799C52.1497 5.65571 51.3483 3.62168 49.7403 2.17098C48.1375 0.720279 45.9665 0 43.2426 0H41.2238C44.2368 2.84054 44.3078 7.17235 44.1709 9.0745C44.1709 9.10493 44.1759 9.1303 44.1759 9.16073C44.1759 9.69841 44.0643 10.9665 43.8361 12.9549C43.5825 15.5114 43.4506 17.1751 43.4506 17.941C43.4506 19.5591 43.8259 20.8982 44.5817 21.9482C45.3324 22.9982 46.4788 23.6678 48.0107 23.9518V24.038C46.4737 24.3221 45.3324 24.9917 44.5817 26.0416C43.8259 27.0916 43.4506 28.4307 43.4506 30.0488C43.4506 30.8148 43.5774 32.4785 43.8361 35.035C44.0643 37.0234 44.1759 38.3016 44.1759 38.8697C44.1759 39.6356 43.9781 40.219 43.5774 40.6146C43.1767 41.0103 42.5274 41.2131 41.6195 41.2131H40.0825V47.9899H43.2375C45.9665 47.9899 48.1324 47.2645 49.7353 45.8189C51.3381 44.3682 52.1447 42.3392 52.1447 39.7219C52.1447 38.9813 52.0889 38.1393 51.9722 37.1857C51.8606 36.2321 51.7287 35.319 51.5867 34.4364C51.3026 32.3923 51.1606 31.043 51.1606 30.3887C51.1606 29.1459 51.7084 28.2887 52.799 27.8068C54.2649 27.1626 55.1222 25.6257 55.1222 24.0279V23.8351C55.1323 22.2069 54.1026 20.8171 52.6164 20.1425Z" fill="#2B7EFF"/>
<path d="M10.9518 38.8748C10.9518 38.3067 11.0634 37.0284 11.2916 35.0401C11.5452 32.4836 11.6771 30.8198 11.6771 30.0539C11.6771 28.4358 11.3018 27.0967 10.546 26.0467C9.7902 24.9967 8.64891 24.3272 7.11705 24.0431V23.9569C8.65398 23.6728 9.79527 23.0033 10.546 21.9533C11.2967 20.9033 11.6771 19.5642 11.6771 17.9461C11.6771 17.1802 11.5503 15.5164 11.2916 12.9599C11.0634 10.9716 10.9518 9.70856 10.9518 9.16581C10.9518 8.36944 11.1496 7.77598 11.5503 7.37526C11.951 6.97961 12.6003 6.7767 13.5133 6.7767H15.0452V0H11.8902C9.16122 0 6.99531 0.725351 5.39244 2.17098C3.78956 3.62168 2.98305 5.65063 2.98305 8.26799C2.98305 9.00856 3.03885 9.85057 3.15551 10.8042C3.26711 11.7578 3.39392 12.6708 3.54102 13.5534C3.82507 15.5976 3.9671 16.9621 3.9671 17.6468C3.9671 18.6157 3.66275 19.3359 3.04899 19.8229C2.89175 19.9446 2.71422 20.0511 2.51132 20.1425C1.02511 20.8171 0.000488281 22.2069 0.000488281 23.8351V24.0279C0.000488281 25.6257 0.862794 27.1677 2.32364 27.8068C3.41421 28.2836 3.96202 29.1459 3.96202 30.3887C3.96202 31.043 3.82 32.3923 3.53594 34.4364C3.39392 35.319 3.26711 36.2321 3.15044 37.1857C3.03885 38.1393 2.97798 38.9813 2.97798 39.7219C2.97798 42.3342 3.77942 44.3682 5.38736 45.8189C6.99024 47.2696 9.16122 47.9899 11.8851 47.9899H12.5496C10.7387 43.653 10.9518 38.8748 10.9518 38.8748Z" fill="#2B7EFF"/>
<path d="M18.0228 21.4002H36.9631V27.2182H17.8351C17.8351 27.2182 18.0126 21.5828 18.0228 21.4002Z" fill="#FA8000"/>
<path d="M41.2239 0.00488281H40.0877V0.0505325C36.8768 0.29908 26.0625 2.64252 23.9777 22.7444C22.243 39.4427 13.8736 41.1014 13.5185 41.1673L13.5895 41.1572L13.5996 41.2231H13.5083C12.6004 41.2231 11.946 41.0253 11.5453 40.6246C11.1497 40.2289 10.9468 39.6456 10.9468 38.8797C10.9468 38.8797 10.7337 43.6629 12.5497 47.9998H14.5583L15.0402 47.9592C17.5561 47.4419 28.903 44.0028 31.0334 23.4799C32.6312 8.09534 39.6514 6.86782 40.5847 6.78666H41.6144C42.5224 6.78666 43.1767 6.98448 43.5724 7.3852C43.9528 7.76563 44.1456 8.33881 44.1608 9.08446C44.3079 7.17724 44.2369 2.84542 41.2239 0.00488281Z" fill="#FA8000"/>
</svg>
